<?xml version="1.0" standalone="no"?><!DOCTYPE svg PUBLIC "-//W3C//DTD SVG 1.1//EN" "http://www.w3.org/Graphics/SVG/1.1/DTD/svg11.dtd"><svg t="1734505481798" class="icon" viewBox="0 0 1024 1024" version="1.1" xmlns="http://www.w3.org/2000/svg" p-id="7691" xmlns:xlink="http://www.w3.org/1999/xlink" width="200" height="200"><path d="M496 496m-448 0a448 448 0 1 0 896 0 448 448 0 1 0-896 0Z" fill="#C5E4FA" p-id="7692"></path><path d="M203.408 836.592a447.968 447.968 0 0 0 146.832 93.168L896 384v-102.816a449.04 449.04 0 0 0-59.408-77.776L203.408 836.592zM172.208 803.792L800 176h-96L131.536 748.464a448.512 448.512 0 0 0 40.672 55.328zM124.72 691.28L656 160l-48-32L101.824 634.176a443.296 443.296 0 0 0 22.896 57.104z" fill="#E3F2FF" p-id="7693"></path><path d="M768 848H224l9.472-163.92L368 576l128-16 117.328 16 129.2 91.936z" fill="#C2CDE7" p-id="7694"></path><path d="M496 688c47.728 0 91.008-29.296 122.928-76.848 9.328-13.904 5.312-34.56-8.192-42.24l-2.704-1.536c-29.616 44.416-68.704 76.048-112.032 76.048s-82.4-31.632-112.032-76.048l-2.704 1.536c-13.504 7.664-17.52 28.336-8.192 42.24C404.992 658.704 448.272 688 496 688z" fill="#CED8EA" p-id="7695"></path><path d="M358.08 502.672c-3.312 0-13.968-8.784-19.536-29.552-5.648-21.088-0.576-34.864 2.032-35.568 0.016 0 20.288-3.536 20.464-7.568a135.68 135.68 0 0 1 1.92-17.408c0.848-4.816 0.16-10.24-0.896-18.464-1.616-12.656-4.048-31.76-1.424-58.064 3.6-36 24.688-57.488 56.624-57.488a11.2 11.2 0 0 0 6.752-2.256C439.488 264.72 470.432 256 496 256h11.28c68.432 0 117.856 34.976 138.112 96.768-7.776-0.88-5.184 4.592-10.72 9.904-4.304 4.128-19.04 7.456-13.904 21.392 6.96 18.896 9.44 30.064 10.176 45.92 0.192 4.032 20.224-3.088 20.432-3.104 2.72 0.928 7.664 25.328 2.064 46.24-5.568 20.768-16.224 29.552-19.52 29.552a11.632 11.632 0 0 0-10.816 8.064c-18.992 63.888-68.736 128.56-127.104 128.56s-108.128-64.672-127.104-128.56a11.28 11.28 0 0 0-10.816-8.064z" fill="#FAEFDE" p-id="7696"></path><path d="M362.144 394.672s48.512 0 69.84-53.328c32 10.672 42.672 42.672 192 32 14.8-1.056 17.024 4.128 21.328 0 5.536-5.312-7.728-21.456 0.048-20.576C625.12 290.976 575.696 256 507.28 256H496c-25.568 0-56.512 8.72-71.952 20.288a11.2 11.2 0 0 1-6.752 2.256c-31.936 0-53.024 21.488-56.624 57.488-2.624 26.288-0.192 45.408 1.424 58.064l0.048 0.576z" fill="#CDA1A7" p-id="7697"></path><path d="M496 48C248.576 48 48 248.576 48 496s200.576 448 448 448 448-200.576 448-448S743.424 48 496 48z m0 800C301.6 848 144 690.4 144 496S301.6 144 496 144a350.832 350.832 0 0 1 253.616 107.904A350.624 350.624 0 0 1 848 496c0 194.4-157.6 352-352 352z" fill="#F9E3AE" p-id="7698"></path><path d="M496 848C301.6 848 144 690.4 144 496H117.424c-39.856 0-69.776 36-63.12 75.296C90.096 782.864 274.24 944 496 944s405.904-161.136 441.696-372.704C944.352 532 914.432 496 874.576 496H848c0 194.4-157.6 352-352 352z" fill="#F6D397" p-id="7699"></path><path d="M496 32C240.16 32 32 240.144 32 496s208.16 464 464 464 464-208.144 464-464S751.84 32 496 32z m0 896C257.792 928 64 734.208 64 496S257.792 64 496 64s432 193.792 432 432-193.792 432-432 432z" fill="#8D6C9F" p-id="7700"></path><path d="M496 800a16 16 0 0 0-16 16v32a16 16 0 1 0 32 0v-32a16 16 0 0 0-16-16zM592.208 801.232a16 16 0 0 0-30.912 8.288l8.288 30.912a16 16 0 1 0 30.912-8.288l-8.288-30.912zM348 760.336a16 16 0 0 0-21.856 5.856l-16 27.712a16 16 0 0 0 27.712 16l16-27.712a16 16 0 0 0-5.856-21.856zM665.856 766.208a16 16 0 0 0-27.712 16l16 27.712a16 16 0 1 0 27.712-16l-16-27.712zM419.392 789.92a16.032 16.032 0 0 0-19.6 11.312l-8.288 30.912a16 16 0 0 0 30.912 8.288l8.288-30.912a16 16 0 0 0-11.312-19.6zM613.616 181.152c11.408 4.272 22.72 9.216 33.6 14.704a16.032 16.032 0 0 0 21.488-7.072 16 16 0 0 0-7.072-21.488 365.248 365.248 0 0 0-36.816-16.112 16 16 0 0 0-11.2 29.968z" fill="#8D6C9F" p-id="7701"></path><path d="M756.224 235.792a370.592 370.592 0 0 0-33.504-29.696 16.016 16.016 0 0 0-19.744 25.184 339.28 339.28 0 0 1 30.624 27.136c117.248 117.264 129.216 300.16 36.576 431.232-36.288-61.616-90.832-106.256-153.76-127.936 8.592-14.624 15.744-30.144 21.056-45.808 13.632-6.336 25.408-22.608 31.248-44.384 8.704-32.528-0.032-60.176-20.768-65.728a62.944 62.944 0 0 0-1.168-0.288 159.088 159.088 0 0 0-6.432-25.024c1.392 0.432 2.752 0.928 4 1.44a16 16 0 0 0 21.776-18.176c-17.584-80.416-77.248-128.432-159.6-128.432H496c-22.896 0-56.32 6.672-78.736 21.2-40.72 2.256-69.584 32.16-74.096 77.456-2.752 27.568-0.16 48.016 1.408 60.24 0.464 3.696 1.056 8.32 1.024 9.312a43.456 43.456 0 0 0-0.336 2l-1.216 0.304c-20.736 5.552-29.472 33.2-20.768 65.728 5.84 21.776 17.632 38.048 31.248 44.368 5.312 15.664 12.464 31.184 21.04 45.808-62.912 21.68-117.472 66.32-153.76 127.92-92.64-131.072-80.672-313.968 36.576-431.232a337.168 337.168 0 0 1 291.008-94.176 16.016 16.016 0 0 0 5.072-31.6 369.328 369.328 0 0 0-318.688 103.136c-143.472 143.472-143.472 376.944 0 520.416a15.952 15.952 0 0 0 22.624 0 15.984 15.984 0 0 0 0-22.624c-5.36-5.36-10.16-11.056-15.072-16.688 33.68-63.44 88.064-108.656 151.072-127.792 26.816 33.504 62.24 57.328 101.6 57.328 39.36 0 74.784-23.824 101.6-57.328 63.008 19.136 117.376 64.352 151.056 127.792-4.912 5.616-9.712 11.312-15.072 16.672a15.984 15.984 0 1 0 22.624 22.624c143.472-143.44 143.472-376.912 0.016-520.384zM496 614.448c-51.312 0-96.768-59.872-113.504-116.192-2.016-6.784-7.344-11.328-14.416-11.328h-0.032c-2.128-0.768-9.664-8.064-13.856-23.664-3.12-11.68-2.336-20.32-1.12-24.688a16 16 0 0 0 22.336-13.936c0.256-5.232 0.832-10.464 1.712-15.568 0.944-5.328 0.224-11.008-0.784-18.912-1.488-11.568-3.696-29.056-1.312-53.008 3.088-30.992 20.32-48.768 47.456-48.768a16 16 0 0 0 9.6-3.2c13.376-10.016 41.456-17.872 63.936-17.872h10.528c58.528 0 101.584 28.56 121.184 79.28-5.856 0.496-11.456 2.432-15.92 6.72-4.272 4.08-10.496 13.424-4.368 30.032 6.288 17.072 8.512 27.104 9.184 41.28 0.272 5.728 4.048 10.624 9.152 13.232 4 2.048 8.896 2.144 13.136 0.592 1.216 4.336 2.064 13.008-1.088 24.8-4.192 15.6-11.728 22.912-12.944 23.552h-0.032c-7.072 0-13.328 4.656-15.344 11.44-16.736 56.336-62.192 116.208-113.504 116.208z" fill="#8D6C9F" p-id="7702"></path><path d="M576.752 351.152h-26.912c-29.36 0-58.848-6.8-85.248-19.664l-16.464-8.016a26.576 26.576 0 0 0-33.76 9.264l-16.88 25.632a15.984 15.984 0 1 0 26.72 17.6l14.24-21.616 12.144 5.92a227.776 227.776 0 0 0 99.264 22.896h26.912a16 16 0 1 0-0.016-32.016z" fill="#8D6C9F" p-id="7703"></path></svg>