<?xml version="1.0" standalone="no"?><!DOCTYPE svg PUBLIC "-//W3C//DTD SVG 1.1//EN" "http://www.w3.org/Graphics/SVG/1.1/DTD/svg11.dtd"><svg t="1739276534409" class="icon" viewBox="0 0 1024 1024" version="1.1" xmlns="http://www.w3.org/2000/svg" p-id="7401" xmlns:xlink="http://www.w3.org/1999/xlink" width="200" height="200"><path d="M917.6 325.5c-22.1-38.2-53.8-72.6-94.1-102.1-83.2-60.8-193.8-94.3-311.4-94.3-117.7 0-228.3 33.5-311.4 94.3-40.4 29.5-72 63.8-94.1 102.1C83.6 365 72 406.9 72 450.2c0 43.2 11.6 85.2 34.4 124.7 22.1 38.2 53.8 72.6 94.1 102.1 83.2 60.8 193.8 94.3 311.4 94.3 41.1 0 81.8-4.1 120.9-12.3l8.6-1.8L888.7 827l-79.2-138.9 24.5-19.2c35.3-27.6 63.4-59.3 83.6-94.1 22.9-39.5 34.4-81.4 34.4-124.7s-11.6-85.1-34.4-124.6zM252 520c-39.8 0-72-32.2-72-72s32.2-72 72-72 72 32.2 72 72-32.2 72-72 72z m260 0c-39.8 0-72-32.2-72-72s32.2-72 72-72 72 32.2 72 72-32.2 72-72 72z m260 0c-39.8 0-72-32.2-72-72s32.2-72 72-72 72 32.2 72 72-32.2 72-72 72z" fill="#FFEB3B" p-id="7402"></path><path d="M979.9 610.9c29.3-50.6 44.1-104.7 44.1-160.7s-14.8-110.1-44.1-160.7c-27.1-46.9-65.5-88.7-114-124.1C770.5 95.6 644.8 57.2 512 57.2c-132.8 0-258.5 38.4-353.9 108.1-48.5 35.4-86.8 77.2-114 124.1C14.8 340 0 394.1 0 450.2s14.8 110.1 44.1 160.7c27.1 46.9 65.5 88.7 114 124.1 95.4 69.7 221.1 108.1 353.9 108.1 42.9 0 85.6-4 126.8-12L875.1 898c6.2 1.7 12.5 2.6 18.9 2.6 21.5 0 41.5-9.7 54.7-26.7 17.5-22.3 19.7-52.6 5.6-77.2l-52-91.2c31.7-28.5 57.7-60.2 77.6-94.6zM512 771.2c-117.7 0-228.3-33.5-311.4-94.3-40.4-29.5-72-63.8-94.1-102.1C83.6 535.3 72 493.4 72 450.2c0-43.2 11.6-85.2 34.4-124.7 22.1-38.2 53.8-72.6 94.1-102.1 83.2-60.8 193.8-94.3 311.4-94.3 117.7 0 228.3 33.5 311.4 94.3 40.4 29.5 72 63.8 94.1 102.1 23 39.5 34.6 81.4 34.6 124.7s-11.6 85.2-34.4 124.7c-20.1 34.8-48.2 66.4-83.6 94.1l-24.5 19.2L888.7 827l-247.2-69.9-8.6 1.8c-39.1 8.1-79.8 12.3-120.9 12.3z" fill="#FF9800" p-id="7403"></path><path d="M252 448m-72 0a72 72 0 1 0 144 0 72 72 0 1 0-144 0Z" fill="#FF9800" p-id="7404" data-spm-anchor-id="a313x.search_index.0.i7.37bd3a81HV5RZ7" class="selected"></path><path d="M512 448m-72 0a72 72 0 1 0 144 0 72 72 0 1 0-144 0Z" fill="#FF5722" p-id="7405"></path><path d="M772 448m-72 0a72 72 0 1 0 144 0 72 72 0 1 0-144 0Z" fill="#d4237a" p-id="7406" data-spm-anchor-id="a313x.search_index.0.i6.37bd3a81HV5RZ7" class="selected"></path></svg>